# Created by Every File Explorer

mtllib itemBanana.mtl

v 2.28202 -2.98469 0.844606
v 3.23275 -3.10059 0.494255
v 4.37486 -1.88154 1.67962
v 3.23275 -3.10059 0.494255
v 2.28202 -2.98469 0.844606
v 2.20978 -2.83439 -0.0901205
v 1.12732 -1.67692 -0.976759
v 2.20978 -2.83439 -0.0901205
v 2.28202 -2.98469 0.844606
v 1.12732 -1.67692 -0.976759
v 2.28202 -2.98469 0.844606
v 0 -0.977316 -0.323935
v 1.23308 -1.39975 0.248554
v 0 -1.55005 0.922366
v 1.40613 -2.93372 1.5662
v 2.65656 -2.21749 1.03675
v 1.23308 -1.39975 0.248554
v 1.40613 -2.93372 1.5662
v 2.96223 -2.94141 1.96828
v 2.65656 -2.21749 1.03675
v 1.40613 -2.93372 1.5662
v 2.96223 -2.94141 1.96828
v 4.37486 -1.88154 1.67962
v 2.65656 -2.21749 1.03675
v 2.65656 -2.21749 1.03675
v 4.37486 -1.88154 1.67962
v 3.23275 -3.10059 0.494255
v 3.23275 -3.10059 0.494255
v 2.20978 -2.83439 -0.0901205
v 2.65656 -2.21749 1.03675
v 2.65656 -2.21749 1.03675
v 2.20978 -2.83439 -0.0901205
v 1.12732 -1.67692 -0.976759
v 2.65656 -2.21749 1.03675
v 1.12732 -1.67692 -0.976759
v 1.23308 -1.39975 0.248554
v 1.07314 0.839181 0.384896
v 1.23308 -1.39975 0.248554
v 1.2212 1.0954 -0.774309
v 1.2212 1.0954 -0.774309
v 0.749514 2.1867 0.258961
v 1.07314 0.839181 0.384896
v 0.801373 2.34064 -0.797156
v 0.749514 2.1867 0.258961
v 1.2212 1.0954 -0.774309
v 0.302168 2.75622 -0.336638
v 0.749514 2.1867 0.258961
v 0.801373 2.34064 -0.797156
v 2.96223 -2.94141 1.96828
v 2.28202 -2.98469 0.844606
v 4.37486 -1.88154 1.67962
v 1.40613 -2.93372 1.5662
v 2.28202 -2.98469 0.844606
v 2.96223 -2.94141 1.96828
v 1.40613 -2.93372 1.5662
v 0 -0.977316 -0.323935
v 2.28202 -2.98469 0.844606
v 1.40613 -2.93372 1.5662
v 0 -1.55005 0.922366
v 0 -0.977316 -0.323935
v -1.40613 -2.93372 1.5662
v 0 -0.977316 -0.323935
v 0 -1.55005 0.922366
v -1.40613 -2.93372 1.5662
v -2.28202 -2.98469 0.844606
v 0 -0.977316 -0.323935
v -1.40613 -2.93372 1.5662
v -2.96223 -2.94141 1.96828
v -2.28202 -2.98469 0.844606
v -2.96223 -2.94141 1.96828
v -4.37486 -1.88154 1.67962
v -2.28202 -2.98469 0.844606
v 0 1.22508 -1.72951
v -0.801372 2.34064 -0.797156
v 0 2.41626 -1.29817
v 0 2.41626 -1.29817
v 0.801373 2.34064 -0.797156
v 0 1.22508 -1.72951
v 0.801373 2.34064 -0.797156
v 0 2.41626 -1.29817
v 7.47534E-06 2.84225 -0.67797
v 0.801373 2.34064 -0.797156
v 7.47534E-06 2.84225 -0.67797
v 0.302168 2.75622 -0.336638
v 0.302168 2.75622 -0.336638
v 7.47534E-06 2.84225 -0.67797
v 3.74019E-06 4.10257 -0.861077
v 0.302168 2.75622 -0.336638
v 3.74019E-06 4.10257 -0.861077
v 0.483255 4.16378 0.099905
v 0 2.61786 0.0437096
v 0.302168 2.75622 -0.336638
v 0.483255 4.16378 0.099905
v 0.302168 2.75622 -0.336638
v 0 2.61786 0.0437096
v 0.749514 2.1867 0.258961
v 0.749514 2.1867 0.258961
v 0 2.61786 0.0437096
v 0 2.1552 0.582475
v 0 2.61786 0.0437096
v -0.749512 2.1867 0.258962
v 0 2.1552 0.582475
v -0.302168 2.75622 -0.336638
v -0.749512 2.1867 0.258962
v 0 2.61786 0.0437096
v -0.483255 4.16378 0.099905
v -0.302168 2.75622 -0.336638
v 0 2.61786 0.0437096
v -0.483255 4.16378 0.099905
v 0 2.61786 0.0437096
v 0.483255 4.16378 0.099905
v -1.2212 1.0954 -0.77431
v -1.23308 -1.39975 0.248554
v -1.07314 0.839182 0.384896
v -0.749512 2.1867 0.258962
v -1.2212 1.0954 -0.77431
v -1.07314 0.839182 0.384896
v -0.749512 2.1867 0.258962
v -0.801372 2.34064 -0.797156
v -1.2212 1.0954 -0.77431
v -0.801372 2.34064 -0.797156
v -0.749512 2.1867 0.258962
v -0.302168 2.75622 -0.336638
v -0.302168 2.75622 -0.336638
v 7.47534E-06 2.84225 -0.67797
v -0.801372 2.34064 -0.797156
v 7.47534E-06 2.84225 -0.67797
v -0.302168 2.75622 -0.336638
v 3.74019E-06 4.10257 -0.861077
v -0.302168 2.75622 -0.336638
v -0.483255 4.16378 0.099905
v 3.74019E-06 4.10257 -0.861077
v -0.403433 0.712216 0.85241
v 0 2.1552 0.582475
v -0.749512 2.1867 0.258962
v 0 2.1552 0.582475
v -0.403433 0.712216 0.85241
v 0.403433 0.712216 0.852411
v 0.403433 0.712216 0.852411
v 0.749514 2.1867 0.258961
v 0 2.1552 0.582475
v 1.07314 0.839181 0.384896
v 0.749514 2.1867 0.258961
v 0.403433 0.712216 0.852411
v 1.23308 -1.39975 0.248554
v 1.07314 0.839181 0.384896
v 0.403433 0.712216 0.852411
v 1.23308 -1.39975 0.248554
v 0.403433 0.712216 0.852411
v 0 -1.55005 0.922366
v 0.403433 0.712216 0.852411
v -0.403433 0.712216 0.85241
v 0 -1.55005 0.922366
v -1.23308 -1.39975 0.248554
v 0 -1.55005 0.922366
v -0.403433 0.712216 0.85241
v -1.07314 0.839182 0.384896
v -1.23308 -1.39975 0.248554
v -0.403433 0.712216 0.85241
v -0.403433 0.712216 0.85241
v -0.749512 2.1867 0.258962
v -1.07314 0.839182 0.384896
v 0 2.41626 -1.29817
v -0.801372 2.34064 -0.797156
v 7.47534E-06 2.84225 -0.67797
v -1.2212 1.0954 -0.77431
v -0.801372 2.34064 -0.797156
v 0 1.22508 -1.72951
v 0 1.22508 -1.72951
v -1.12732 -1.67692 -0.976759
v -1.2212 1.0954 -0.77431
v 0 -0.957594 -1.64792
v -1.12732 -1.67692 -0.976759
v 0 1.22508 -1.72951
v 0 -0.957594 -1.64792
v 0 1.22508 -1.72951
v 1.12732 -1.67692 -0.976759
v 1.12732 -1.67692 -0.976759
v 0 1.22508 -1.72951
v 1.2212 1.0954 -0.774309
v 0 1.22508 -1.72951
v 0.801373 2.34064 -0.797156
v 1.2212 1.0954 -0.774309
v 5.55771E-06 -2.28641 -3.2907
v 1.12732 -1.67692 -0.976759
v 1.11265 -2.97395 -2.81489
v 5.55771E-06 -2.28641 -3.2907
v 1.11265 -2.97395 -2.81489
v 4.06802E-06 -2.22378 -5.53637
v -1.11264 -2.97395 -2.81489
v 5.55771E-06 -2.28641 -3.2907
v 4.06802E-06 -2.22378 -5.53637
v -1.11264 -2.97395 -2.81489
v -1.12732 -1.67692 -0.976759
v 5.55771E-06 -2.28641 -3.2907
v -1.12732 -1.67692 -0.976759
v 0 -0.957594 -1.64792
v 5.55771E-06 -2.28641 -3.2907
v 5.55771E-06 -2.28641 -3.2907
v 0 -0.957594 -1.64792
v 1.12732 -1.67692 -0.976759
v 3.74019E-06 4.10257 -0.861077
v -0.483255 4.16378 0.099905
v 0.483255 4.16378 0.099905
v -1.12732 -1.67692 -0.976759
v -1.23308 -1.39975 0.248554
v -1.2212 1.0954 -0.77431
v 0 -1.55005 0.922366
v -1.23308 -1.39975 0.248554
v -1.40613 -2.93372 1.5662
v -2.65656 -2.21749 1.03675
v -1.40613 -2.93372 1.5662
v -1.23308 -1.39975 0.248554
v -2.96223 -2.94141 1.96828
v -1.40613 -2.93372 1.5662
v -2.65656 -2.21749 1.03675
v -2.96223 -2.94141 1.96828
v -2.65656 -2.21749 1.03675
v -4.37486 -1.88154 1.67962
v -2.65656 -2.21749 1.03675
v -3.23275 -3.10059 0.494255
v -4.37486 -1.88154 1.67962
v -3.23275 -3.10059 0.494255
v -2.65656 -2.21749 1.03675
v -2.20978 -2.83439 -0.0901205
v -2.65656 -2.21749 1.03675
v -1.12732 -1.67692 -0.976759
v -2.20978 -2.83439 -0.0901205
v -2.65656 -2.21749 1.03675
v -1.23308 -1.39975 0.248554
v -1.12732 -1.67692 -0.976759
v 1.2212 1.0954 -0.774309
v 1.23308 -1.39975 0.248554
v 1.12732 -1.67692 -0.976759
v -1.11264 -2.97395 -2.81489
v 4.06802E-06 -2.22378 -5.53637
v 3.57628E-06 -2.55857 -3.13298
v -1.11264 -2.97395 -2.81489
v 3.57628E-06 -2.55857 -3.13298
v -1.12732 -1.67692 -0.976759
v 0 -0.977316 -0.323935
v -1.12732 -1.67692 -0.976759
v 3.57628E-06 -2.55857 -3.13298
v 3.57628E-06 -2.55857 -3.13298
v 4.06802E-06 -2.22378 -5.53637
v 1.11265 -2.97395 -2.81489
v 3.57628E-06 -2.55857 -3.13298
v 1.11265 -2.97395 -2.81489
v 1.12732 -1.67692 -0.976759
v 1.12732 -1.67692 -0.976759
v 0 -0.977316 -0.323935
v 3.57628E-06 -2.55857 -3.13298
v -2.28202 -2.98469 0.844606
v -4.37486 -1.88154 1.67962
v -3.23275 -3.10059 0.494255
v -3.23275 -3.10059 0.494255
v -2.20978 -2.83439 -0.0901205
v -2.28202 -2.98469 0.844606
v -2.28202 -2.98469 0.844606
v -2.20978 -2.83439 -0.0901205
v -1.12732 -1.67692 -0.976759
v -2.28202 -2.98469 0.844606
v -1.12732 -1.67692 -0.976759
v 0 -0.977316 -0.323935

vn -0.380423 -0.922018 0.071845
vn -0.0157298 -0.961229 0.275303
vn 0.143365 -0.755696 0.639038
vn -0.0157298 -0.961229 0.275303
vn -0.380423 -0.922018 0.071845
vn -0.460478 -0.881305 -0.106122
vn -0.529539 -0.823784 0.202406
vn -0.460478 -0.881305 -0.106122
vn -0.380423 -0.922018 0.071845
vn -0.529539 -0.823784 0.202406
vn -0.380423 -0.922018 0.071845
vn -0.454087 -0.877205 0.155936
vn 0.731066 0.384298 0.563789
vn 0 0.275756 0.961228
vn 0.0330442 0.695975 0.717305
vn 0.309299 0.950937 -0.00727944
vn 0.731066 0.384298 0.563789
vn 0.0330442 0.695975 0.717305
vn -0.268009 0.716126 0.644464
vn 0.309299 0.950937 -0.00727944
vn 0.0330442 0.695975 0.717305
vn -0.268009 0.716126 0.644464
vn -0.151287 0.982458 -0.109034
vn 0.309299 0.950937 -0.00727944
vn 0.309299 0.950937 -0.00727944
vn -0.151287 0.982458 -0.109034
vn 0.341469 0.643583 -0.684981
vn 0.341469 0.643583 -0.684981
vn 0.656664 0.520817 -0.545474
vn 0.309299 0.950937 -0.00727944
vn 0.309299 0.950937 -0.00727944
vn 0.656664 0.520817 -0.545474
vn 0.753067 0.373751 -0.541479
vn 0.309299 0.950937 -0.00727944
vn 0.753067 0.373751 -0.541479
vn 0.731066 0.384298 0.563789
vn 0.833735 0.137668 0.534728
vn 0.731066 0.384298 0.563789
vn 0.960898 0.155822 -0.228897
vn 0.960898 0.155822 -0.228897
vn 0.659117 0.53091 0.532634
vn 0.833735 0.137668 0.534728
vn 0.70257 0.590988 -0.396394
vn 0.659117 0.53091 0.532634
vn 0.960898 0.155822 -0.228897
vn 0.891797 0.451225 -0.0330756
vn 0.659117 0.53091 0.532634
vn 0.70257 0.590988 -0.396394
vn 0.275015 -0.952641 -0.12978
vn 0.0314299 -0.962531 -0.269345
vn 0.534721 -0.792547 -0.293159
vn -0.364297 -0.890867 -0.271376
vn 0.0314299 -0.962531 -0.269345
vn 0.275015 -0.952641 -0.12978
vn -0.364297 -0.890867 -0.271376
vn 0 -0.880468 -0.474106
vn 0.0314299 -0.962531 -0.269345
vn -0.364297 -0.890867 -0.271376
vn 0 -0.908648 -0.417563
vn 0 -0.880468 -0.474106
vn 0.364297 -0.890867 -0.271376
vn 0 -0.880468 -0.474106
vn 0 -0.908648 -0.417563
vn 0.364297 -0.890867 -0.271376
vn -0.0314299 -0.962531 -0.269345
vn 0 -0.880468 -0.474106
vn 0.364297 -0.890867 -0.271376
vn -0.275015 -0.95264 -0.12978
vn -0.0314299 -0.962531 -0.269345
vn -0.275015 -0.95264 -0.12978
vn -0.534721 -0.792547 -0.293159
vn -0.0314299 -0.962531 -0.269345
vn 0 0.149904 -0.9887
vn -0.702568 0.59099 -0.396395
vn 1.07989E-06 0.621428 -0.783472
vn 1.07989E-06 0.621428 -0.783472
vn 0.70257 0.590988 -0.396394
vn 0 0.149904 -0.9887
vn 0.70257 0.590988 -0.396394
vn 1.07989E-06 0.621428 -0.783472
vn 7.39432E-06 0.726705 -0.686949
vn 0.70257 0.590988 -0.396394
vn 7.39432E-06 0.726705 -0.686949
vn 0.891797 0.451225 -0.0330756
vn 0.891797 0.451225 -0.0330756
vn 7.39432E-06 0.726705 -0.686949
vn 8.17906E-06 0.345914 -0.938266
vn 0.891797 0.451225 -0.0330756
vn 8.17906E-06 0.345914 -0.938266
vn 0.804551 0.341017 0.486216
vn 0 0.49152 0.870866
vn 0.891797 0.451225 -0.0330756
vn 0.804551 0.341017 0.486216
vn 0.891797 0.451225 -0.0330756
vn 0 0.49152 0.870866
vn 0.659117 0.53091 0.532634
vn 0.659117 0.53091 0.532634
vn 0 0.49152 0.870866
vn 0 0.479154 0.877731
vn 0 0.49152 0.870866
vn -0.659117 0.53091 0.532634
vn 0 0.479154 0.877731
vn -0.891796 0.451227 -0.0330838
vn -0.659117 0.53091 0.532634
vn 0 0.49152 0.870866
vn -0.804551 0.341018 0.486214
vn -0.891796 0.451227 -0.0330838
vn 0 0.49152 0.870866
vn -0.804551 0.341018 0.486214
vn 0 0.49152 0.870866
vn 0.804551 0.341017 0.486216
vn -0.960898 0.155822 -0.228897
vn -0.731066 0.384298 0.563788
vn -0.833735 0.137669 0.534728
vn -0.659117 0.53091 0.532634
vn -0.960898 0.155822 -0.228897
vn -0.833735 0.137669 0.534728
vn -0.659117 0.53091 0.532634
vn -0.702568 0.59099 -0.396395
vn -0.960898 0.155822 -0.228897
vn -0.702568 0.59099 -0.396395
vn -0.659117 0.53091 0.532634
vn -0.891796 0.451227 -0.0330838
vn -0.891796 0.451227 -0.0330838
vn 7.39432E-06 0.726705 -0.686949
vn -0.702568 0.59099 -0.396395
vn 7.39432E-06 0.726705 -0.686949
vn -0.891796 0.451227 -0.0330838
vn 8.17906E-06 0.345914 -0.938266
vn -0.891796 0.451227 -0.0330838
vn -0.804551 0.341018 0.486214
vn 8.17906E-06 0.345914 -0.938266
vn -0.34069 0.107836 0.933971
vn 0 0.479154 0.877731
vn -0.659117 0.53091 0.532634
vn 0 0.479154 0.877731
vn -0.34069 0.107836 0.933971
vn 0.34069 0.107836 0.933971
vn 0.34069 0.107836 0.933971
vn 0.659117 0.53091 0.532634
vn 0 0.479154 0.877731
vn 0.833735 0.137668 0.534728
vn 0.659117 0.53091 0.532634
vn 0.34069 0.107836 0.933971
vn 0.731066 0.384298 0.563789
vn 0.833735 0.137668 0.534728
vn 0.34069 0.107836 0.933971
vn 0.731066 0.384298 0.563789
vn 0.34069 0.107836 0.933971
vn 0 0.275756 0.961228
vn 0.34069 0.107836 0.933971
vn -0.34069 0.107836 0.933971
vn 0 0.275756 0.961228
vn -0.731066 0.384298 0.563788
vn 0 0.275756 0.961228
vn -0.34069 0.107836 0.933971
vn -0.833735 0.137669 0.534728
vn -0.731066 0.384298 0.563788
vn -0.34069 0.107836 0.933971
vn -0.34069 0.107836 0.933971
vn -0.659117 0.53091 0.532634
vn -0.833735 0.137669 0.534728
vn 1.07989E-06 0.621428 -0.783472
vn -0.702568 0.59099 -0.396395
vn 7.39432E-06 0.726705 -0.686949
vn -0.960898 0.155822 -0.228897
vn -0.702568 0.59099 -0.396395
vn 0 0.149904 -0.9887
vn 0 0.149904 -0.9887
vn -0.753067 0.37375 -0.54148
vn -0.960898 0.155822 -0.228897
vn 0 0.381546 -0.92435
vn -0.753067 0.37375 -0.54148
vn 0 0.149904 -0.9887
vn 0 0.381546 -0.92435
vn 0 0.149904 -0.9887
vn 0.753067 0.373751 -0.541479
vn 0.753067 0.373751 -0.541479
vn 0 0.149904 -0.9887
vn 0.960898 0.155822 -0.228897
vn 0 0.149904 -0.9887
vn 0.70257 0.590988 -0.396394
vn 0.960898 0.155822 -0.228897
vn 0 0.916283 -0.400531
vn 0.753067 0.373751 -0.541479
vn 0.580599 0.781477 -0.228472
vn 0 0.916283 -0.400531
vn 0.580599 0.781477 -0.228472
vn 0 0.999611 0.0278803
vn -0.580597 0.781478 -0.228472
vn 0 0.916283 -0.400531
vn 0 0.999611 0.0278803
vn -0.580597 0.781478 -0.228472
vn -0.753067 0.37375 -0.54148
vn 0 0.916283 -0.400531
vn -0.753067 0.37375 -0.54148
vn 0 0.381546 -0.92435
vn 0 0.916283 -0.400531
vn 0 0.916283 -0.400531
vn 0 0.381546 -0.92435
vn 0.753067 0.373751 -0.541479
vn 8.17906E-06 0.345914 -0.938266
vn -0.804551 0.341018 0.486214
vn 0.804551 0.341017 0.486216
vn -0.753067 0.37375 -0.54148
vn -0.731066 0.384298 0.563788
vn -0.960898 0.155822 -0.228897
vn 0 0.275756 0.961228
vn -0.731066 0.384298 0.563788
vn -0.0330442 0.695975 0.717305
vn -0.309299 0.950937 -0.00727957
vn -0.0330442 0.695975 0.717305
vn -0.731066 0.384298 0.563788
vn 0.268009 0.716126 0.644464
vn -0.0330442 0.695975 0.717305
vn -0.309299 0.950937 -0.00727957
vn 0.268009 0.716126 0.644464
vn -0.309299 0.950937 -0.00727957
vn 0.151287 0.982458 -0.109034
vn -0.309299 0.950937 -0.00727957
vn -0.341469 0.643583 -0.684981
vn 0.151287 0.982458 -0.109034
vn -0.341469 0.643583 -0.684981
vn -0.309299 0.950937 -0.00727957
vn -0.656664 0.520817 -0.545474
vn -0.309299 0.950937 -0.00727957
vn -0.753067 0.37375 -0.54148
vn -0.656664 0.520817 -0.545474
vn -0.309299 0.950937 -0.00727957
vn -0.731066 0.384298 0.563788
vn -0.753067 0.37375 -0.54148
vn 0.960898 0.155822 -0.228897
vn 0.731066 0.384298 0.563789
vn 0.753067 0.373751 -0.541479
vn 0.393998 -0.894898 0.209579
vn 0.313642 -0.940461 -0.131006
vn 0.347187 -0.886741 0.305209
vn 0.393998 -0.894898 0.209579
vn 0.347187 -0.886741 0.305209
vn 0.529539 -0.823784 0.202407
vn 0.454087 -0.877205 0.155937
vn 0.529539 -0.823784 0.202407
vn 0.347187 -0.886741 0.305209
vn -0.347187 -0.886741 0.305208
vn -0.313642 -0.940461 -0.131006
vn -0.393998 -0.894898 0.209579
vn -0.347187 -0.886741 0.305208
vn -0.393998 -0.894898 0.209579
vn -0.529539 -0.823784 0.202406
vn -0.529539 -0.823784 0.202406
vn -0.454087 -0.877205 0.155936
vn -0.347187 -0.886741 0.305208
vn 0.380423 -0.922018 0.0718449
vn -0.143365 -0.755696 0.639038
vn 0.0157298 -0.961229 0.275303
vn 0.0157298 -0.961229 0.275303
vn 0.460478 -0.881305 -0.106123
vn 0.380423 -0.922018 0.0718449
vn 0.380423 -0.922018 0.0718449
vn 0.460478 -0.881305 -0.106123
vn 0.529539 -0.823784 0.202407
vn 0.380423 -0.922018 0.0718449
vn 0.529539 -0.823784 0.202407
vn 0.454087 -0.877205 0.155937

vt 0.853053 1.42129
vt 0.699674 1.83326
vt 0.853053 1.95735
vt 0.699674 1.83326
vt 0.853053 1.42129
vt 0.657414 1.65692
vt 0.658634 1.29789
vt 0.657414 1.65692
vt 0.853053 1.42129
vt 0.658634 1.29789
vt 0.853053 1.42129
vt 0.853053 1.03971
vt 0.821201 0.370623
vt 0.662019 0.347633
vt 0.662526 0.193757
vt 0.815129 0.147038
vt 0.821201 0.370623
vt 0.662526 0.193757
vt 0.661176 0.155054
vt 0.815129 0.147038
vt 0.662526 0.193757
vt 0.661176 0.155054
vt 0.834131 -0.013269
vt 0.815129 0.147038
vt 0.815671 0.141585
vt 0.834131 -0.013269
vt 1.03398 0.0784142
vt 1.03398 0.0784142
vt 1.03398 0.192905
vt 0.815671 0.141585
vt 0.815671 0.141585
vt 1.03398 0.192905
vt 1.03398 0.406081
vt 0.815671 0.141585
vt 1.03398 0.406081
vt 0.821201 0.370623
vt 0.776679 0.630516
vt 0.821201 0.370623
vt 1.03398 0.650356
vt 1.03398 0.650356
vt 0.825216 0.81174
vt 0.776679 0.630516
vt 1.03398 0.786439
vt 0.825216 0.81174
vt 1.03398 0.650356
vt 0.960198 0.858536
vt 0.825216 0.81174
vt 1.03398 0.786439
vt 1.01273 1.83326
vt 0.853053 1.42129
vt 0.853053 1.95735
vt 1.04419 1.65692
vt 0.853053 1.42129
vt 1.01273 1.83326
vt 1.04419 1.65692
vt 0.853053 1.03971
vt 0.853053 1.42129
vt 1.04419 1.65692
vt 1.04698 1.34277
vt 0.853053 1.03971
vt 1.04419 1.65692
vt 0.853053 1.03971
vt 1.04698 1.34277
vt 1.04419 1.65692
vt 0.853053 1.42129
vt 0.853053 1.03971
vt 1.04419 1.65692
vt 1.01273 1.83326
vt 0.853053 1.42129
vt 1.01273 1.83326
vt 0.853053 1.95735
vt 0.853053 1.42129
vt 0.82754 0.643783
vt 0.994316 0.786439
vt 0.82754 0.820939
vt 0.82754 0.820939
vt 0.994316 0.786439
vt 0.82754 0.643783
vt 0.994316 0.786439
vt 0.82754 0.820939
vt 0.8272 0.877594
vt 0.994316 0.786439
vt 0.8272 0.877594
vt 0.920531 0.858536
vt 0.920531 0.858536
vt 0.8272 0.877594
vt 0.876202 0.996589
vt 0.920531 0.858536
vt 0.876202 0.996589
vt 0.876202 0.996589
vt 0.727923 0.863137
vt 0.920531 0.858536
vt 0.876202 0.996589
vt 0.920531 0.858536
vt 0.727923 0.863137
vt 0.793729 0.809852
vt 0.793729 0.809852
vt 0.727923 0.863137
vt 0.681984 0.818025
vt 0.727923 0.863137
vt 0.790331 0.809852
vt 0.681984 0.818025
vt 0.919217 0.858536
vt 0.790331 0.809852
vt 0.727923 0.863137
vt 0.876202 0.996589
vt 0.919217 0.858536
vt 0.727923 0.863137
vt 0.876202 0.996589
vt 0.727923 0.863137
vt 0.876202 0.996589
vt 1.03398 0.650356
vt 0.821201 0.370623
vt 0.776679 0.630516
vt 0.825216 0.81174
vt 1.03398 0.650356
vt 0.776679 0.630516
vt 0.825216 0.81174
vt 1.03398 0.786439
vt 1.03398 0.650356
vt 1.03398 0.786439
vt 0.825216 0.81174
vt 0.958884 0.858536
vt 0.919217 0.858536
vt 0.8272 0.877594
vt 0.994316 0.786439
vt 0.8272 0.877594
vt 0.919217 0.858536
vt 0.876202 0.996589
vt 0.919217 0.858536
vt 0.971584 0.996589
vt 0.876202 0.996589
vt -0.269505 0.720719
vt 0.000132791 0.954558
vt -0.558675 0.97718
vt 0.000132791 0.954558
vt -0.269505 0.720719
vt 0.269771 0.720719
vt 0.269771 0.720719
vt 0.558941 0.97718
vt 0.000132791 0.954558
vt 0.717377 0.763247
vt 0.558941 0.97718
vt 0.269771 0.720719
vt 0.671791 0.341433
vt 0.717377 0.763247
vt 0.269771 0.720719
vt 0.671791 0.341433
vt 0.269771 0.720719
vt 0.000132626 0.313162
vt 0.269771 0.720719
vt -0.269505 0.720719
vt 0.000132626 0.313162
vt -0.671526 0.341433
vt 0.000132626 0.313162
vt -0.269505 0.720719
vt -0.717112 0.763247
vt -0.671526 0.341433
vt -0.269505 0.720719
vt -0.269505 0.720719
vt -0.558675 0.97718
vt -0.717112 0.763247
vt 0.82754 0.820939
vt 0.994316 0.786439
vt 0.8272 0.877594
vt 0.994316 0.650356
vt 0.994316 0.786439
vt 0.82754 0.643783
vt 0.82754 0.643783
vt 0.994316 0.434455
vt 0.994316 0.650356
vt 0.82754 0.434305
vt 0.994316 0.434455
vt 0.82754 0.643783
vt 0.82754 0.434305
vt 0.82754 0.643783
vt 0.994316 0.434455
vt 0.994316 0.434455
vt 0.82754 0.643783
vt 0.994316 0.650356
vt 0.82754 0.643783
vt 0.994316 0.786439
vt 0.994316 0.650356
vt 0.827541 0.242881
vt 0.994316 0.434455
vt 0.994316 0.180624
vt 0.827541 0.242881
vt 0.994316 0.180624
vt 0.827541 -0.0159514
vt 0.994316 0.180624
vt 0.827541 0.242881
vt 0.827541 -0.0159514
vt 0.994316 0.180624
vt 0.994316 0.434455
vt 0.827541 0.242881
vt 0.994316 0.434455
vt 0.82754 0.434305
vt 0.827541 0.242881
vt 0.827541 0.242881
vt 0.82754 0.434305
vt 0.994316 0.434455
vt 0.251722 0.00560776
vt -0.00191909 0.148447
vt -0.255564 0.00560775
vt 1.03398 0.306168
vt 0.821201 0.370623
vt 1.03398 0.650356
vt 0.662019 0.347633
vt 0.821201 0.370623
vt 0.662526 0.193757
vt 0.815129 0.147038
vt 0.662526 0.193757
vt 0.821201 0.370623
vt 0.661176 0.155054
vt 0.662526 0.193757
vt 0.815129 0.147038
vt 0.661176 0.155054
vt 0.815129 0.147038
vt 0.834131 -0.013269
vt 0.815671 0.141585
vt 1.03398 0.0784142
vt 0.834131 -0.013269
vt 1.03398 0.0784142
vt 0.815671 0.141585
vt 1.03398 0.192905
vt 0.815671 0.141585
vt 1.03398 0.406081
vt 1.03398 0.192905
vt 0.815671 0.141585
vt 0.821201 0.370623
vt 1.03398 0.406081
vt 1.03398 0.650356
vt 0.821201 0.370623
vt 1.03398 0.406081
vt 0.971348 1.65692
vt 1.16375 1.95735
vt 1.16375 1.50875
vt 0.971348 1.65692
vt 1.16375 1.50875
vt 0.970819 1.29789
vt 1.16375 1.03971
vt 0.970819 1.29789
vt 1.16375 1.50875
vt 1.16375 1.50875
vt 1.16375 1.95735
vt 1.35615 1.65692
vt 1.16375 1.50875
vt 1.35615 1.65692
vt 1.35668 1.29789
vt 1.35668 1.29789
vt 1.16375 1.03971
vt 1.16375 1.50875
vt 0.853053 1.42129
vt 0.853053 1.95735
vt 0.699674 1.83326
vt 0.699674 1.83326
vt 0.657414 1.65692
vt 0.853053 1.42129
vt 0.853053 1.42129
vt 0.657414 1.65692
vt 0.658634 1.29789
vt 0.853053 1.42129
vt 0.658634 1.29789
vt 0.853053 1.03971

usemtl mat_itemBanana

f 1/1/1 2/2/2 3/3/3
f 4/4/4 5/5/5 6/6/6
f 7/7/7 8/8/8 9/9/9
f 10/10/10 11/11/11 12/12/12
f 13/13/13 14/14/14 15/15/15
f 16/16/16 17/17/17 18/18/18
f 19/19/19 20/20/20 21/21/21
f 22/22/22 23/23/23 24/24/24
f 25/25/25 26/26/26 27/27/27
f 28/28/28 29/29/29 30/30/30
f 31/31/31 32/32/32 33/33/33
f 34/34/34 35/35/35 36/36/36
f 37/37/37 38/38/38 39/39/39
f 40/40/40 41/41/41 42/42/42
f 43/43/43 44/44/44 45/45/45
f 46/46/46 47/47/47 48/48/48
f 49/49/49 50/50/50 51/51/51
f 52/52/52 53/53/53 54/54/54
f 55/55/55 56/56/56 57/57/57
f 58/58/58 59/59/59 60/60/60
f 61/61/61 62/62/62 63/63/63
f 64/64/64 65/65/65 66/66/66
f 67/67/67 68/68/68 69/69/69
f 70/70/70 71/71/71 72/72/72
f 73/73/73 74/74/74 75/75/75
f 76/76/76 77/77/77 78/78/78
f 79/79/79 80/80/80 81/81/81
f 82/82/82 83/83/83 84/84/84
f 85/85/85 86/86/86 87/87/87
f 88/88/88 89/89/89 90/90/90
f 91/91/91 92/92/92 93/93/93
f 94/94/94 95/95/95 96/96/96
f 97/97/97 98/98/98 99/99/99
f 100/100/100 101/101/101 102/102/102
f 103/103/103 104/104/104 105/105/105
f 106/106/106 107/107/107 108/108/108
f 109/109/109 110/110/110 111/111/111
f 112/112/112 113/113/113 114/114/114
f 115/115/115 116/116/116 117/117/117
f 118/118/118 119/119/119 120/120/120
f 121/121/121 122/122/122 123/123/123
f 124/124/124 125/125/125 126/126/126
f 127/127/127 128/128/128 129/129/129
f 130/130/130 131/131/131 132/132/132
f 133/133/133 134/134/134 135/135/135
f 136/136/136 137/137/137 138/138/138
f 139/139/139 140/140/140 141/141/141
f 142/142/142 143/143/143 144/144/144
f 145/145/145 146/146/146 147/147/147
f 148/148/148 149/149/149 150/150/150
f 151/151/151 152/152/152 153/153/153
f 154/154/154 155/155/155 156/156/156
f 157/157/157 158/158/158 159/159/159
f 160/160/160 161/161/161 162/162/162
f 163/163/163 164/164/164 165/165/165
f 166/166/166 167/167/167 168/168/168
f 169/169/169 170/170/170 171/171/171
f 172/172/172 173/173/173 174/174/174
f 175/175/175 176/176/176 177/177/177
f 178/178/178 179/179/179 180/180/180
f 181/181/181 182/182/182 183/183/183
f 184/184/184 185/185/185 186/186/186
f 187/187/187 188/188/188 189/189/189
f 190/190/190 191/191/191 192/192/192
f 193/193/193 194/194/194 195/195/195
f 196/196/196 197/197/197 198/198/198
f 199/199/199 200/200/200 201/201/201
f 202/202/202 203/203/203 204/204/204
f 205/205/205 206/206/206 207/207/207
f 208/208/208 209/209/209 210/210/210
f 211/211/211 212/212/212 213/213/213
f 214/214/214 215/215/215 216/216/216
f 217/217/217 218/218/218 219/219/219
f 220/220/220 221/221/221 222/222/222
f 223/223/223 224/224/224 225/225/225
f 226/226/226 227/227/227 228/228/228
f 229/229/229 230/230/230 231/231/231
f 232/232/232 233/233/233 234/234/234
f 235/235/235 236/236/236 237/237/237
f 238/238/238 239/239/239 240/240/240
f 241/241/241 242/242/242 243/243/243
f 244/244/244 245/245/245 246/246/246
f 247/247/247 248/248/248 249/249/249
f 250/250/250 251/251/251 252/252/252
f 253/253/253 254/254/254 255/255/255
f 256/256/256 257/257/257 258/258/258
f 259/259/259 260/260/260 261/261/261
f 262/262/262 263/263/263 264/264/264
